<?xml version="1.0" standalone="no"?>
<!DOCTYPE svg PUBLIC "-//W3C//DTD SVG 20010904//EN"
 "http://www.w3.org/TR/2001/REC-SVG-20010904/DTD/svg10.dtd">
<svg version="1.0" xmlns="http://www.w3.org/2000/svg"
 width="998.000000pt" height="513.000000pt" viewBox="0 0 998.000000 513.000000"
 preserveAspectRatio="xMidYMid meet">

<g transform="translate(0.000000,513.000000) scale(0.100000,-0.100000)"
fill="#000000" stroke="none">
<path d="M5550 5045 c-127 -189 -346 -429 -485 -533 -93 -70 -254 -148 -330
-161 -298 -49 -690 -137 -890 -202 l-95 -30 0 -576 0 -575 58 54 c162 150 407
259 692 308 207 35 642 38 812 4 24 -5 33 2 78 63 27 37 60 88 72 113 26 53
33 60 73 60 74 1 155 68 155 128 0 18 6 22 29 22 75 0 150 48 177 114 14 34
26 47 46 51 15 4 39 15 53 26 31 25 33 73 6 128 l-20 38 25 14 c33 17 57 64
50 95 -4 13 -17 31 -31 40 l-24 16 30 40 c36 51 38 96 6 134 -23 26 -23 29 -8
58 19 38 21 117 3 139 -12 14 -16 14 -45 -4 -18 -10 -42 -19 -54 -19 -22 0
-22 0 7 63 34 70 39 131 15 177 -9 17 -18 30 -21 30 -4 0 -19 -11 -36 -25 -35
-29 -53 -32 -43 -7 20 52 34 131 29 162 -8 42 -53 125 -63 113 -4 -4 -23 -33
-43 -63 -44 -66 -116 -137 -142 -142 -18 -3 -19 3 -17 57 2 33 5 63 8 68 8 13
-7 97 -17 97 -5 0 -32 -34 -60 -75z"/>
<path d="M6195 4245 c-14 -13 -25 -29 -25 -35 0 -20 40 -90 135 -235 l94 -144
3 -146 c3 -140 4 -148 27 -166 32 -26 67 -24 96 6 24 23 25 29 25 162 l0 138
110 170 c110 168 125 197 118 231 -5 26 -49 48 -80 41 -26 -7 -44 -31 -171
-232 l-48 -76 -90 143 c-50 79 -97 149 -106 156 -26 19 -62 14 -88 -13z"/>
<path d="M6968 4057 c-94 -27 -161 -102 -180 -204 -31 -167 53 -313 199 -343
151 -32 287 37 331 169 7 19 12 66 12 106 0 82 -11 123 -52 182 -54 79 -198
121 -310 90z m158 -106 c46 -28 69 -83 69 -166 0 -124 -54 -190 -148 -182 -27
2 -56 12 -69 23 -70 63 -78 231 -14 303 40 44 109 54 162 22z"/>
<path d="M7459 4049 c-20 -20 -20 -29 -17 -227 3 -192 5 -209 25 -242 58 -93
193 -105 298 -25 l45 35 0 -25 c0 -54 69 -85 103 -47 15 16 17 50 17 270 0
248 0 251 -22 266 -31 22 -64 20 -88 -4 -18 -18 -20 -34 -21 -172 0 -175 -9
-212 -58 -245 -45 -30 -92 -30 -128 1 l-28 24 -5 187 c-5 181 -6 187 -29 206
-30 25 -66 24 -92 -2z"/>
<path d="M8104 4049 c-18 -20 -19 -39 -19 -266 l0 -245 24 -19 c30 -25 63 -24
87 2 16 18 20 43 25 178 8 229 31 267 147 243 48 -10 58 -10 74 5 46 41 5 106
-75 118 -53 8 -94 -7 -129 -48 l-27 -32 -1 26 c0 54 -69 79 -106 38z"/>
<path d="M2730 3564 l0 -425 23 6 c101 31 226 113 287 190 45 57 88 151 105
230 15 71 19 182 9 221 -11 40 -221 150 -349 183 -27 7 -56 15 -62 17 -10 3
-13 -86 -13 -422z"/>
<path d="M8584 2985 c-29 -29 -26 -58 8 -87 27 -24 63 -23 88 2 40 40 11 110
-45 110 -14 0 -37 -11 -51 -25z"/>
<path d="M6275 2989 c-11 -7 -23 -17 -27 -23 -4 -6 -8 -160 -8 -342 0 -270 3
-334 14 -350 13 -18 28 -19 193 -19 146 0 187 3 230 18 66 23 127 82 161 155
25 53 27 66 27 197 0 130 -2 144 -26 196 -32 68 -87 125 -148 152 -39 18 -71
21 -221 24 -124 3 -181 0 -195 -8z m355 -136 c59 -36 84 -93 88 -199 7 -148
-30 -235 -114 -270 -21 -9 -70 -14 -129 -14 l-95 0 0 256 0 256 108 -3 c89 -4
113 -8 142 -26z"/>
<path d="M8240 2970 c-17 -17 -20 -33 -20 -100 0 -74 -2 -80 -21 -80 -37 0
-59 -19 -59 -50 0 -31 22 -50 59 -50 20 0 21 -5 21 -175 0 -208 7 -234 69
-258 46 -19 96 -21 156 -7 43 10 65 32 65 66 0 31 -16 39 -80 39 -75 0 -80 12
-80 191 l0 141 47 6 c50 5 76 27 66 55 -10 28 -35 42 -75 42 l-38 0 0 80 c0
89 -17 120 -65 120 -14 0 -34 -9 -45 -20z"/>
<path d="M7175 2801 c-43 -11 -107 -46 -126 -67 -57 -65 -85 -207 -60 -299 33
-124 125 -190 266 -190 100 0 161 22 209 76 37 40 45 76 24 97 -22 22 -56 12
-109 -33 -55 -47 -97 -61 -152 -51 -53 10 -107 79 -107 137 0 18 8 19 154 19
87 0 167 5 185 11 96 33 42 217 -82 281 -43 21 -153 32 -202 19z m150 -123
c24 -22 38 -45 42 -70 l6 -38 -128 0 -127 0 6 33 c20 101 129 142 201 75z"/>
<path d="M7745 2801 c-78 -20 -130 -67 -141 -127 -16 -86 33 -140 162 -179
122 -36 153 -51 166 -80 24 -54 -42 -95 -130 -82 -28 5 -48 18 -82 57 -64 71
-120 68 -120 -7 0 -47 25 -80 84 -111 45 -23 63 -26 146 -26 156 0 229 49 237
158 7 95 -41 137 -211 183 -97 26 -126 44 -126 78 0 32 23 47 79 53 47 4 51 2
99 -42 71 -67 132 -63 132 9 0 37 -37 76 -94 100 -45 19 -157 28 -201 16z"/>
<path d="M8589 2791 l-24 -19 0 -247 0 -247 24 -19 c31 -25 63 -24 89 4 21 23
22 31 22 265 0 235 -1 242 -22 262 -27 25 -59 26 -89 1z"/>
<path d="M8860 2790 c-19 -19 -20 -33 -20 -259 0 -226 1 -240 21 -265 24 -31
57 -34 90 -7 23 19 24 26 29 189 4 153 7 174 26 199 39 52 107 69 151 38 34
-24 43 -76 43 -246 0 -142 2 -157 20 -177 24 -26 57 -28 88 -6 22 15 22 19 22
222 0 196 -2 209 -23 246 -56 99 -204 113 -298 29 -34 -30 -39 -33 -39 -16 0
31 -38 73 -66 73 -13 0 -33 -9 -44 -20z"/>
<path d="M9460 2790 c-11 -11 -20 -31 -20 -44 0 -14 41 -129 90 -255 50 -127
90 -238 90 -247 0 -18 -27 -73 -48 -96 -11 -13 -30 -18 -72 -18 -65 0 -86 -15
-76 -55 8 -31 70 -49 144 -42 72 8 112 33 143 92 30 56 226 569 235 614 11 55
-62 95 -99 54 -8 -10 -43 -99 -78 -198 -34 -99 -66 -184 -69 -188 -4 -5 -29
54 -55 130 -76 218 -86 242 -101 258 -21 21 -60 19 -84 -5z"/>
<path d="M6070 2041 l0 -88 88 -6 c112 -7 270 -60 477 -161 166 -81 287 -157
415 -261 63 -51 80 -61 66 -39 -106 166 -283 318 -495 424 -47 23 -166 73
-265 110 -100 38 -205 77 -233 89 l-53 21 0 -89z"/>
<path d="M6113 896 c4 -10 7 -45 7 -77 l0 -60 66 -30 c107 -49 233 -87 327
-99 110 -15 130 -3 50 29 -85 34 -277 137 -358 191 -100 66 -100 66 -92 46z"/>
</g>
</svg>
